PathFileType	4	(X/Y/Z)	C:/Users/opensim2020/Desktop/walking_exp_matlab/subject01_walking04_static.trc	
DataRate	CameraRate	NumFrames	NumMarkers	Units	OrigDataRate	OrigDataStartFrame	OrigNumFrames	
100.00	100.00	9	43	mm	100.00	201	321	
Frame#	Time	LFHD			RFHD			LBHD			RBHD			C7			T10			CLAV			STRN			RBAK			LSHO			LUPA			LELB			LFRM			LWRA			LWRB			LFIN			RSHO			RUPA			RELB			RFRM			RWRA			RWRB			RFIN			LASI			RASI			LPSI			RPSI			LTHI			LKNE			LTIB			LANK			LHEE			LTOE			RTHI			RKNE			RTIB			RANK			RHEE			RTOE			*39			*40			*41			*42			
		X1	Y1	Z1	X2	Y2	Z2	X3	Y3	Z3	X4	Y4	Z4	X5	Y5	Z5	X6	Y6	Z6	X7	Y7	Z7	X8	Y8	Z8	X9	Y9	Z9	X10	Y10	Z10	X11	Y11	Z11	X12	Y12	Z12	X13	Y13	Z13	X14	Y14	Z14	X15	Y15	Z15	X16	Y16	Z16	X17	Y17	Z17	X18	Y18	Z18	X19	Y19	Z19	X20	Y20	Z20	X21	Y21	Z21	X22	Y22	Z22	X23	Y23	Z23	X24	Y24	Z24	X25	Y25	Z25	X26	Y26	Z26	X27	Y27	Z27	X28	Y28	Z28	X29	Y29	Z29	X30	Y30	Z30	X31	Y31	Z31	X32	Y32	Z32	X33	Y33	Z33	X34	Y34	Z34	X35	Y35	Z35	X36	Y36	Z36	X37	Y37	Z37	X38	Y38	Z38	X39	Y39	Z39	X40	Y40	Z40	X41	Y41	Z41	X42	Y42	Z42	X43	Y43	Z43	

201	2.000	15.39022	-403.41956	1684.71985	12.39069	-289.35413	1694.07202	113.17059	-404.17346	1606.23987	113.94103	-283.74789	1614.30139	116.79392	-356.57178	1437.29077	140.97592	-347.37967	1143.31201	-29.80222	-345.21524	1375.56482	-79.03936	-345.23224	1221.10425	167.77347	-278.54318	1241.32373	21.33366	-510.02948	1399.08228	41.30061	-605.48950	1222.11975	50.80909	-628.68073	1073.91370	-0.62374	-638.29761	965.89069	-71.47956	-591.75568	854.23975	-31.11145	-636.39941	847.78961	-83.11895	-625.35614	780.81665	40.61083	-198.76353	1400.52173	92.27721	-83.71989	1210.01270	77.18532	-58.08565	1086.37024	29.65332	-39.26159	969.36890	-39.24791	-91.32368	855.21552	-19.37602	-36.81646	856.35596	-54.03292	-54.88634	779.58221	-44.98641	-445.84598	937.98907	-33.50053	-228.71484	941.83710	146.52934	-405.01572	952.01508	152.92712	-262.31223	957.33173	5.34115	-518.10217	606.83142	26.40185	-508.33224	472.54507	77.08643	-530.81549	292.90833	84.89756	-488.50980	71.48234	124.17191	-435.96411	39.26983	-64.29873	-509.12967	33.35364	39.07850	-158.21188	613.38788	29.25443	-173.85583	456.55704	74.48317	-151.52892	287.71426	79.81394	-179.02757	78.55899	124.84790	-227.72339	35.22893	-61.42240	-164.15913	37.24500	34.31935	-313.39923	1722.41919	-3102.00439	1973.16516	1023.54163	-3140.65210	2012.51599	1022.08838			 
202	2.010	15.26589	-403.37036	1684.70569	12.26558	-289.31210	1694.05176	113.08724	-404.10602	1606.24841	113.82529	-283.70831	1614.30859	116.74348	-356.53369	1437.29480	141.03564	-347.39355	1143.35156	-29.85593	-345.21445	1375.54126	-79.04765	-345.24261	1221.07568	167.80539	-278.54742	1241.35034	21.30272	-510.02304	1399.07288	41.33095	-605.50452	1222.13745	50.92495	-628.66656	1073.94751	-0.50030	-638.29468	965.84717	-71.31631	-591.78162	854.21039	-30.95412	-636.45380	847.78522	-82.94428	-625.37286	780.74200	40.59786	-198.77150	1400.50366	92.31845	-83.72835	1210.00964	77.23862	-58.09241	1086.33350	29.73615	-39.29668	969.33203	-39.09795	-91.36318	855.16113	-19.26395	-36.84298	856.31219	-53.85414	-54.96612	779.51416	-44.92558	-445.88989	938.00616	-33.39885	-228.76779	941.81824	146.60258	-405.03357	951.99774	152.95683	-262.35339	957.30688	5.38509	-518.15540	606.82098	26.45939	-508.37238	472.51855	77.11318	-530.83734	292.88257	84.92108	-488.55014	71.43982	124.22850	-436.00220	39.32760	-64.26739	-509.14224	33.31419	39.14212	-158.26332	613.40747	29.32266	-173.86629	456.58035	74.49862	-151.55408	287.72571	79.86127	-179.02321	78.53906	124.83240	-227.67787	35.19086	-61.42095	-164.16553	37.26526	33.89534	-313.42175	1722.22620	-3101.97070	1973.01440	1023.85034	-3140.65088	2012.53625	1021.84784			 
203	2.020	15.16261	-403.32755	1684.72839	12.09746	-289.28369	1694.05774	113.00647	-404.06680	1606.29932	113.75308	-283.66785	1614.32910	116.70324	-356.51996	1437.32141	141.06502	-347.40479	1143.36084	-29.87749	-345.19922	1375.49146	-79.06046	-345.24539	1221.04517	167.78546	-278.50775	1241.36682	21.28821	-509.99506	1399.07300	41.37925	-605.48267	1222.16785	51.02733	-628.69336	1073.97034	-0.36169	-638.26990	965.85883	-71.15443	-591.78760	854.18445	-30.75602	-636.49200	847.80353	-82.71492	-625.38953	780.70416	40.50726	-198.75975	1400.48157	92.31303	-83.73825	1209.96814	77.28886	-58.10893	1086.29456	29.80570	-39.31233	969.31000	-38.95335	-91.37219	855.10004	-19.16487	-36.88034	856.25751	-53.79676	-54.68364	779.57635	-44.84420	-445.89532	938.00763	-33.35709	-228.81288	941.79041	146.66762	-405.05994	952.02563	153.02544	-262.33392	957.28668	5.45595	-518.15729	606.82745	26.50361	-508.40768	472.53735	77.15363	-530.85052	292.88937	84.93689	-488.46240	71.43547	124.20535	-435.93976	39.28165	-64.27012	-509.12122	33.30492	39.16933	-158.30231	613.39130	29.37673	-173.87654	456.58481	74.58025	-151.54521	287.71045	79.89100	-179.00098	78.50802	124.88051	-227.65108	35.27988	-61.40323	-164.15399	37.24850	33.76022	-313.36511	1722.24536	-3102.02222	1973.04602	1023.95026	-3140.59229	2012.52112	1021.92871			 
204	2.030	15.02955	-403.27481	1684.72974	12.12801	-289.28204	1694.09155	112.92776	-404.03827	1606.33923	113.63589	-283.59039	1614.39026	116.64428	-356.46948	1437.37659	141.09691	-347.41254	1143.40637	-29.94876	-345.20187	1375.45398	-79.03906	-345.29257	1221.01086	167.84619	-278.47205	1241.41858	21.27510	-509.97223	1399.08093	41.39137	-605.46686	1222.19287	51.12781	-628.70978	1073.99414	-0.22161	-638.25470	965.86896	-71.00150	-591.75903	854.17340	-30.58113	-636.50769	847.82233	-82.55040	-625.38062	780.69324	40.45269	-198.71695	1400.47180	92.31148	-83.73441	1209.97583	77.30474	-58.12363	1086.28540	29.86424	-39.33297	969.26770	-38.84142	-91.40837	855.06256	-19.01233	-36.90554	856.19720	-53.83831	-54.75478	779.50220	-44.78157	-445.94897	938.01550	-33.29726	-228.83119	941.78558	146.72136	-405.06116	952.04834	153.04868	-262.38684	957.28693	5.52102	-518.20245	606.83362	26.52492	-508.43704	472.55173	77.17567	-530.85162	292.87775	84.92619	-488.52380	71.50550	124.16575	-435.95456	39.24237	-64.29013	-509.13498	33.35565	39.24646	-158.31947	613.37354	29.40878	-173.83226	456.57349	74.57880	-151.55324	287.73969	79.89101	-179.03755	78.53729	124.83160	-227.68776	35.26997	-61.40485	-164.16315	37.23418	33.60453	-313.33359	1722.28870	-3101.79321	1973.07349	1023.27643	-3140.65674	2012.48975	1021.93024			 
205	2.040	14.88813	-403.26721	1684.70947	11.82610	-289.21982	1694.03894	112.80304	-403.98047	1606.38245	113.50544	-283.55750	1614.41516	116.57434	-356.49902	1437.41150	141.13162	-347.42435	1143.43237	-30.02398	-345.18451	1375.39990	-79.00816	-345.30310	1220.96338	167.84027	-278.45755	1241.45166	21.22758	-509.96494	1399.07361	41.40981	-605.47986	1222.20105	51.24471	-628.67450	1073.98877	-0.07376	-638.24731	965.86810	-70.81641	-591.73889	854.14227	-30.38902	-636.49658	847.80267	-82.31565	-625.35895	780.65497	40.41089	-198.70296	1400.43823	92.32323	-83.73964	1209.96631	77.35397	-58.15281	1086.27588	29.94385	-39.34526	969.23450	-38.72729	-91.41846	854.98547	-18.93433	-36.90936	856.13934	-53.73030	-54.74453	779.41431	-44.70728	-445.94778	938.00092	-33.24550	-228.84875	941.76685	146.78360	-405.08414	952.04773	152.95712	-262.29575	957.33575	5.57612	-518.22296	606.85602	26.56038	-508.45642	472.53128	77.17869	-530.85254	292.86346	84.90151	-488.53574	71.45058	124.15942	-436.00406	39.27557	-64.27603	-509.14041	33.35984	39.28539	-158.34662	613.39398	29.44558	-173.89479	456.57840	74.61729	-151.51492	287.73389	79.85136	-179.01228	78.54462	124.81928	-227.67181	35.23862	-61.39986	-164.16780	37.23815	33.60245	-313.25861	1722.41235	-3101.93604	1973.05383	1023.82196	-3140.62646	2012.46375	1021.94830			 
206	2.050	14.78744	-403.26428	1684.71326	11.65595	-289.19928	1694.03613	112.71717	-403.96564	1606.42639	113.40381	-283.54419	1614.46387	116.49419	-356.41791	1437.42737	141.13501	-347.41641	1143.46497	-30.05854	-345.19711	1375.38770	-78.98950	-345.29883	1220.93091	167.87480	-278.44101	1241.48145	21.20616	-509.95740	1399.08948	41.45135	-605.45520	1222.20349	51.32431	-628.66327	1073.97766	0.08339	-638.23242	965.84564	-70.65826	-591.64856	854.15930	-30.17826	-636.46161	847.79321	-82.09399	-625.33832	780.62402	40.36273	-198.68661	1400.40283	92.33587	-83.74278	1209.91895	77.38510	-58.14367	1086.21448	30.02519	-39.34360	969.18738	-38.62055	-91.43879	854.90509	-18.82652	-36.93717	856.08197	-53.60654	-54.75093	779.34784	-44.64557	-445.98761	938.01740	-33.19908	-228.87888	941.79187	146.86464	-405.10321	952.05487	153.00066	-262.31976	957.32208	5.65161	-518.26434	606.85388	26.61374	-508.47305	472.53598	77.21901	-530.87756	292.88025	84.92890	-488.49664	71.46499	124.17059	-435.96295	39.26524	-64.29367	-509.11432	33.32362	39.29021	-158.37173	613.42804	29.41586	-173.89020	456.56516	74.58916	-151.55470	287.74811	79.88080	-179.02733	78.56960	124.82423	-227.70947	35.24979	-61.41893	-164.16486	37.25452	33.41687	-313.25656	1722.37122	-3102.02075	1973.03943	1023.73212	-3140.56763	2012.51270	1021.96692			 
207	2.060	14.65743	-403.23608	1684.73535	11.51466	-289.16556	1694.05566	112.59177	-403.91275	1606.46863	113.28699	-283.48694	1614.51746	116.45134	-356.41983	1437.46545	141.17441	-347.37372	1143.52136	-30.10876	-345.19955	1375.36816	-78.96534	-345.33698	1220.89368	167.87807	-278.44235	1241.53735	21.18369	-509.97601	1399.10413	41.48794	-605.44049	1222.23413	51.43936	-628.67346	1074.00549	0.21118	-638.21808	965.85925	-70.44988	-591.66376	854.13226	-29.98329	-636.42889	847.79034	-81.86961	-625.31317	780.61969	40.29399	-198.66698	1400.40344	92.34875	-83.74726	1209.89587	77.37851	-58.16215	1086.19897	29.99363	-39.24754	969.18164	-38.53970	-91.44624	854.83234	-18.74862	-36.93382	856.01276	-53.26488	-54.70366	779.26093	-44.57375	-445.99246	937.99786	-33.14944	-228.89120	941.80334	146.92525	-405.10645	952.07922	153.06035	-262.36298	957.32953	5.72855	-518.25403	606.87134	26.65363	-508.47708	472.53998	77.22971	-530.87500	292.87360	84.93369	-488.51923	71.44278	124.17736	-435.95898	39.28413	-64.29121	-509.13675	33.32000	39.28812	-158.36809	613.40222	29.44205	-173.95770	456.59375	74.58495	-151.53006	287.73428	79.87444	-179.02924	78.50758	124.78466	-227.68916	35.24067	-61.42183	-164.18137	37.24849	33.25723	-313.25021	1722.41895	-3102.02368	1973.10156	1023.80389	-3140.73608	2012.55078	1022.06079			 
208	2.070	14.53063	-403.18869	1684.73633	11.37953	-289.14572	1694.03491	112.47250	-403.90054	1606.50269	113.20244	-283.44064	1614.57568	116.40001	-356.42413	1437.50122	141.21654	-347.37021	1143.54822	-30.16109	-345.19049	1375.33020	-78.94209	-345.36334	1220.84888	167.88539	-278.44495	1241.58630	21.15979	-509.95908	1399.11658	41.53051	-605.42633	1222.25293	51.57004	-628.69757	1074.04333	0.34671	-638.20093	965.86981	-70.26154	-591.60529	854.09106	-29.80214	-636.44800	847.78650	-81.64748	-625.27594	780.57703	40.22802	-198.64622	1400.40771	92.31594	-83.78146	1209.91162	77.38261	-58.17701	1086.20032	30.05486	-39.26462	969.13867	-38.46112	-91.44677	854.79169	-18.62125	-36.93018	855.98694	-53.40145	-54.72986	779.24182	-44.51669	-446.01602	938.00275	-33.08625	-228.93343	941.80066	146.97932	-405.13391	952.08472	153.15225	-262.35989	957.34186	5.77083	-518.30084	606.87799	26.68837	-508.49960	472.55215	77.24627	-530.87103	292.86951	84.89883	-488.53928	71.44234	124.14436	-435.99588	39.25757	-64.25632	-509.11380	33.32388	39.32148	-158.40393	613.39136	29.43738	-173.92006	456.57605	74.58070	-151.54355	287.74399	79.87370	-179.03603	78.52573	124.79997	-227.69771	35.26920	-61.42496	-164.19821	37.23323	33.08997	-313.23325	1722.42932	-3101.90186	1972.98682	1023.72937	-3140.67700	2012.53235	1021.96252			 
209	2.080	14.39026	-403.16467	1684.72803	11.23061	-289.11658	1694.03870	112.36732	-403.86624	1606.53162	113.06477	-283.38699	1614.59094	116.34940	-356.40848	1437.52332	141.24628	-347.35706	1143.56702	-30.20510	-345.22540	1375.33325	-78.90849	-345.38086	1220.81091	167.87454	-278.44412	1241.59814	21.15396	-509.96277	1399.12415	41.59776	-605.43591	1222.25635	51.67978	-628.63287	1074.06299	0.48735	-638.16791	965.85492	-69.97723	-591.78516	854.02112	-29.62770	-636.39618	847.75629	-81.43619	-625.25989	780.52753	40.15458	-198.67493	1400.38342	92.32005	-83.79665	1209.87817	77.37345	-58.21507	1086.18738	30.08753	-39.27015	969.14453	-38.38718	-91.46964	854.73572	-18.56442	-36.93599	855.93713	-53.28790	-54.72749	779.20343	-44.44129	-446.03055	937.97601	-33.02092	-228.95213	941.78864	147.05525	-405.18011	952.07520	153.16669	-262.41220	957.33234	5.84170	-518.30682	606.87500	26.73489	-508.50018	472.54120	77.27454	-530.86285	292.86121	84.94052	-488.47910	71.46953	124.20240	-435.98270	39.25380	-64.26962	-509.14191	33.34135	39.26685	-158.38344	613.42615	29.42323	-173.94135	456.57733	74.60718	-151.53896	287.75574	79.91368	-179.05914	78.50347	124.85609	-227.66335	35.28992	-61.41638	-164.20030	37.25314	32.74112	-313.20932	1722.25244	-3102.03369	1973.03931	1024.00012	-3140.65967	2012.53442	1022.06262			 
